<svg width="117" height="79" viewBox="0 0 117 79" fill="none" xmlns="http://www.w3.org/2000/svg">
<mask id="mask0_222_269" style="mask-type:alpha" maskUnits="userSpaceOnUse" x="0" y="0" width="117" height="79">
<rect width="116.92" height="79" rx="15.8" fill="#00579F"/>
</mask>
<g mask="url(#mask0_222_269)">
<path d="M0 -20.395H116.63V42.5652L110.857 51.5852L116.63 59.6131V96.2347H0V36.8825L3.60803 32.7333L0 28.7644V-20.395Z" fill="#016FD0"/>
<path d="M22.6404 60.8762V42.5654H42.0281L44.1082 45.2771L46.2571 42.5654H116.63V59.6134C116.63 59.6134 114.789 60.8579 112.661 60.8762H73.6941L71.3488 57.9898V60.8762H63.6637V55.949C63.6637 55.949 62.6139 56.6368 60.3443 56.6368H57.7285V60.8762H46.0926L44.0155 58.1064L41.9065 60.8762H22.6404Z" fill="white"/>
<path d="M0 28.7645L4.372 18.5718H11.9329L14.4141 24.2813V18.5718H23.813L25.2901 22.6984L26.722 18.5718H68.9134V20.6464C68.9134 20.6464 71.1314 18.5718 74.7765 18.5718L88.4661 18.6196L90.9044 24.2544V18.5718H98.7699L100.935 21.8085V18.5718H108.872V36.8825H100.935L98.8601 33.6353V36.8825H87.3039L86.1418 33.9961H83.0351L81.8919 36.8825H74.0549C70.9184 36.8825 68.9134 34.8503 68.9134 34.8503V36.8825H57.0971L54.7519 33.9961V36.8825H10.8128L9.65149 33.9961H6.5547L5.40157 36.8825H0V28.7645Z" fill="white"/>
<path d="M5.9191 20.8291L0.0222168 34.5396H3.86139L4.94944 31.7941H11.2748L12.3572 34.5396H16.2809L10.3897 20.8291H5.9191ZM8.10083 24.02L10.0289 28.8175H6.16715L8.10083 24.02Z" fill="#016FD0"/>
<path d="M16.6873 34.5377V20.8271L22.1429 20.8474L25.3161 29.6871L28.4134 20.8271H33.8254V34.5377H30.3978V24.4352L26.7644 34.5377H23.7584L20.1149 24.4352V34.5377H16.6873Z" fill="#016FD0"/>
<path d="M36.1707 34.5377V20.8271H47.3556V23.894H39.6344V26.2392H47.1752V29.1256H39.6344V31.5611H47.3556V34.5377H36.1707Z" fill="#016FD0"/>
<path d="M49.3401 20.8291V34.5396H52.7677V29.6688H54.2109L58.3207 34.5396H62.5094L57.9994 29.4884C59.8503 29.3322 61.7596 27.7436 61.7596 25.2771C61.7596 22.392 59.4951 20.8291 56.9677 20.8291H49.3401ZM52.7677 23.8959H56.6858C57.6257 23.8959 58.3094 24.6311 58.3094 25.3391C58.3094 26.25 57.4236 26.7824 56.7366 26.7824H52.7677V23.8959Z" fill="#016FD0"/>
<path d="M66.6585 34.5377H63.1587V20.8271H66.6585V34.5377Z" fill="#016FD0"/>
<path d="M74.9572 34.5377H74.2017C70.5466 34.5377 68.3274 31.658 68.3274 27.7388C68.3274 23.7227 70.5218 20.8271 75.1376 20.8271H78.926V24.0744H74.999C73.1253 24.0744 71.8001 25.5367 71.8001 27.7726C71.8001 30.4278 73.3154 31.543 75.4984 31.543H76.4004L74.9572 34.5377Z" fill="#016FD0"/>
<path d="M82.4152 20.8291L76.5183 34.5396H80.3575L81.4455 31.7941H87.7709L88.8533 34.5396H92.777L86.8858 20.8291H82.4152ZM84.5969 24.02L86.525 28.8175H82.6632L84.5969 24.02Z" fill="#016FD0"/>
<path d="M93.1775 34.5377V20.8271H97.5353L103.1 29.4413V20.8271H106.527V34.5377H102.31L96.6051 25.698V34.5377H93.1775Z" fill="#016FD0"/>
<path d="M24.9856 58.5308V44.8203H36.1705V47.8872H28.4493V50.2324H35.9901V53.1188H28.4493V55.5542H36.1705V58.5308H24.9856Z" fill="#016FD0"/>
<path d="M79.7915 58.5308V44.8203H90.9764V47.8872H83.2552V50.2324H90.7599V53.1188H83.2552V55.5542H90.9764V58.5308H79.7915Z" fill="#016FD0"/>
<path d="M36.6048 58.5308L42.0506 51.7601L36.4751 44.8203H40.7935L44.114 49.1105L47.4458 44.8203H51.595L46.0928 51.6756L51.5487 58.5308H47.231L44.0069 54.3083L40.8611 58.5308H36.6048Z" fill="#016FD0"/>
<path d="M51.9556 44.8228V58.5333H55.4734V54.2036H59.0814C62.1343 54.2036 64.4484 52.584 64.4484 49.4343C64.4484 46.825 62.6335 44.8228 59.5268 44.8228H51.9556ZM55.4734 47.9234H59.2731C60.2594 47.9234 60.9644 48.5279 60.9644 49.5019C60.9644 50.417 60.2629 51.0804 59.2618 51.0804H55.4734V47.9234Z" fill="#016FD0"/>
<path d="M65.9368 44.8203V58.5308H69.3644V53.66H70.8076L74.9174 58.5308H79.1061L74.596 53.4796C76.447 53.3234 78.3563 51.7348 78.3563 49.2683C78.3563 46.3832 76.0918 44.8203 73.5644 44.8203H65.9368ZM69.3644 47.8872H73.2825C74.2224 47.8872 74.9061 48.6224 74.9061 49.3304C74.9061 50.2412 74.0202 50.7736 73.3332 50.7736H69.3644V47.8872Z" fill="#016FD0"/>
<path d="M92.5636 58.5308V55.5542H99.4234C100.438 55.5542 100.878 55.0057 100.878 54.4042C100.878 53.8278 100.44 53.2451 99.4234 53.2451H96.3236C93.6291 53.2451 92.1284 51.6034 92.1284 49.1387C92.1284 46.9403 93.5026 44.8203 97.5066 44.8203H104.182L102.738 47.9052H96.9654C95.8619 47.9052 95.5222 48.4842 95.5222 49.0372C95.5222 49.6056 95.942 50.2324 96.785 50.2324H100.032C103.036 50.2324 104.339 51.9362 104.339 54.1674C104.339 56.5661 102.887 58.5308 99.8688 58.5308H92.5636Z" fill="#016FD0"/>
<path d="M105.144 58.5308V55.5542H112.004C113.019 55.5542 113.458 55.0057 113.458 54.4042C113.458 53.8278 113.02 53.2451 112.004 53.2451H108.904C106.21 53.2451 104.709 51.6034 104.709 49.1387C104.709 46.9403 106.083 44.8203 110.087 44.8203H116.762L115.319 47.9052H109.546C108.442 47.9052 108.103 48.4842 108.103 49.0372C108.103 49.6056 108.523 50.2324 109.366 50.2324H112.613C115.617 50.2324 116.92 51.9362 116.92 54.1674C116.92 56.5661 115.468 58.5308 112.449 58.5308H105.144Z" fill="#016FD0"/>
</g>
</svg>
