<svg width="24" height="24" viewBox="0 0 24 24" fill="none" xmlns="http://www.w3.org/2000/svg">
<mask id="mask0_65_7" style="mask-type:alpha" maskUnits="userSpaceOnUse" x="0" y="0" width="24" height="24">
<rect width="24" height="24" fill="#D9D9D9"/>
</mask>
<g mask="url(#mask0_65_7)">
<path d="M5.07612 11C4.21331 11 3.48528 10.701 2.89205 10.1031C2.29881 9.50512 2.0022 8.77945 2.0022 7.92607V5.07609C2.0022 4.21328 2.29881 3.48525 2.89205 2.89202C3.48528 2.29878 4.21331 2.00217 5.07612 2.00217H7.9261C8.77948 2.00217 9.50515 2.29878 10.1031 2.89202C10.701 3.48525 11 4.21328 11 5.07609V7.92607C11 8.77945 10.701 9.50512 10.1031 10.1031C9.50515 10.701 8.77948 11 7.9261 11H5.07612ZM5.07612 21.9978C4.21331 21.9978 3.48528 21.7012 2.89205 21.108C2.29881 20.5147 2.0022 19.7867 2.0022 18.9239V16.0739C2.0022 15.2205 2.29881 14.4949 2.89205 13.8969C3.48528 13.299 4.21331 13 5.07612 13H7.9261C8.77948 13 9.50515 13.299 10.1031 13.8969C10.701 14.4949 11 15.2205 11 16.0739V18.9239C11 19.7867 10.701 20.5147 10.1031 21.108C9.50515 21.7012 8.77948 21.9978 7.9261 21.9978H5.07612ZM16.0739 11C15.2206 11 14.4949 10.701 13.8969 10.1031C13.299 9.50512 13 8.77945 13 7.92607V5.07609C13 4.21328 13.299 3.48525 13.8969 2.89202C14.4949 2.29878 15.2206 2.00217 16.0739 2.00217H18.9239C19.7867 2.00217 20.5148 2.29878 21.108 2.89202C21.7012 3.48525 21.9978 4.21328 21.9978 5.07609V7.92607C21.9978 8.77945 21.7012 9.50512 21.108 10.1031C20.5148 10.701 19.7867 11 18.9239 11H16.0739ZM16.0739 21.9978C15.2206 21.9978 14.4949 21.7012 13.8969 21.108C13.299 20.5147 13 19.7867 13 18.9239V16.0739C13 15.2205 13.299 14.4949 13.8969 13.8969C14.4949 13.299 15.2206 13 16.0739 13H18.9239C19.7867 13 20.5148 13.299 21.108 13.8969C21.7012 14.4949 21.9978 15.2205 21.9978 16.0739V18.9239C21.9978 19.7867 21.7012 20.5147 21.108 21.108C20.5148 21.7012 19.7867 21.9978 18.9239 21.9978H16.0739Z" fill="url(#paint0_linear_65_7)"/>
</g>
<defs>
<linearGradient id="paint0_linear_65_7" x1="5" y1="2" x2="22.4571" y2="9.82408" gradientUnits="userSpaceOnUse">
<stop stop-color="#FF9900"/>
<stop offset="1" stop-color="#3B00FF"/>
</linearGradient>
</defs>
</svg>
