<svg width="50" height="31" viewBox="0 0 50 31" fill="none" xmlns="http://www.w3.org/2000/svg">
<path d="M31.7454 3.30762H18.2146V27.6171H31.7454V3.30762Z" fill="#FF5A00"/>
<path d="M19.1153 15.4624C19.1153 10.5234 21.4371 6.13991 25 3.30765C22.3779 1.246 19.0703 0 15.4624 0C6.91553 0 0 6.91553 0 15.4624C0 24.0092 6.91553 30.9247 15.4624 30.9247C19.0703 30.9247 22.3779 29.6787 25 27.6171C21.4321 24.8249 19.1153 20.4013 19.1153 15.4624Z" fill="#EB001B"/>
<path d="M50 15.4624C50 24.0092 43.0845 30.9247 34.5376 30.9247C30.9297 30.9247 27.6221 29.6787 25 27.6171C28.6079 24.7798 30.8847 20.4013 30.8847 15.4624C30.8847 10.5234 28.5628 6.13991 25 3.30765C27.6171 1.246 30.9247 0 34.5326 0C43.0845 0 50 6.96057 50 15.4624Z" fill="#F79E1B"/>
</svg>
