<svg width="634" height="509" viewBox="0 0 634 509" fill="none" xmlns="http://www.w3.org/2000/svg">
<path d="M572.048 457.89C578.301 468.958 572.998 506.337 572.998 506.337C572.998 506.337 538.274 491.62 532.021 480.557C529.026 475.243 528.26 468.956 529.892 463.077C531.524 457.198 535.421 452.208 540.725 449.204C546.03 446.2 552.309 445.428 558.182 447.056C564.055 448.685 569.043 452.582 572.048 457.89Z" fill="#F1F1F1"/>
<path d="M573.502 506.289L572.764 506.445C565.659 472.646 540.847 449.727 540.597 449.499L541.104 448.941C541.356 449.17 566.345 472.245 573.502 506.289Z" fill="white"/>
<path d="M628.866 470.492C620.381 485.904 572.539 506.783 572.539 506.783C572.539 506.783 564.652 455.131 573.133 439.723C577.208 432.324 584.052 426.848 592.16 424.5C600.267 422.153 608.974 423.126 616.365 427.207C623.756 431.287 629.225 438.139 631.569 446.257C633.914 454.375 632.941 463.092 628.866 470.492Z" fill="#F1F1F1"/>
<path d="M572.962 507.342L572.243 506.585C606.862 473.667 615.824 427.755 615.911 427.295L616.936 427.488C616.849 427.951 607.832 474.185 572.962 507.342Z" fill="white"/>
<path d="M121.036 298.947C117.09 298.934 113.161 298.426 109.342 297.435L108.589 297.227L107.89 296.877C82.6422 284.227 61.3415 267.519 44.5802 247.215C30.7053 230.309 19.8878 211.114 12.6141 190.493C3.91591 165.805 -0.268765 139.755 0.259829 113.587C0.270495 113.038 0.279521 112.614 0.279521 112.321C0.279521 99.6009 7.34543 88.4396 18.2807 83.8864C26.65 80.4017 102.64 49.212 108.13 46.9585C118.47 41.7812 129.501 46.1024 131.266 46.8581C135.226 48.4758 205.473 77.1875 220.654 84.4109C236.299 91.8555 240.473 105.23 240.473 111.958C240.473 142.421 235.193 170.892 224.781 196.578C216.371 217.369 204.453 236.564 189.544 253.325C160.779 285.673 132.007 297.14 131.729 297.241C128.29 298.423 124.672 299 121.036 298.947ZM114.27 282.198C116.764 282.757 122.508 283.596 126.251 282.231C131.006 280.498 155.088 268.019 177.592 242.712C208.685 207.747 224.461 163.793 224.484 112.071C224.429 111.023 223.684 103.549 213.78 98.8363C198.894 91.7527 125.877 61.9177 125.141 61.6169L124.94 61.5315C123.409 60.8907 118.54 59.5411 115.183 61.2989L114.511 61.612C113.697 61.946 33.0331 95.0527 24.4303 98.6346C18.4124 101.14 16.2682 107.348 16.2682 112.321C16.2682 112.685 16.2588 113.214 16.2455 113.897C15.5579 149.287 23.7533 236.372 114.27 282.198Z" fill="#3F3D56"/>
<path d="M111.936 54.072C111.936 54.072 30.7427 87.5209 22.0434 91.1566C13.3441 94.7924 8.99442 103.518 8.99442 112.244C8.99442 120.97 2.46997 234.83 111.936 289.881C111.936 289.881 121.871 292.638 129.409 289.881C136.946 287.123 232.639 240.586 232.639 111.88C232.639 111.88 232.639 98.7917 217.415 91.5202C202.191 84.2487 128.587 54.072 128.587 54.072C128.587 54.072 119.548 50.0727 111.936 54.072Z" fill="#00A3FF"/>
<path opacity="0.1" d="M120.344 80.1849V258.858C120.344 258.858 38.6697 219.253 39.3925 115.134L120.344 80.1849Z" fill="black"/>
<path d="M121.301 208.307L95.0996 174.9L110.337 163.148L122.743 178.966L164.653 135.094L178.668 148.261L121.301 208.307Z" fill="white"/>
<path d="M633.129 509H301.469C301.238 509 301.017 508.908 300.854 508.745C300.69 508.581 300.599 508.36 300.599 508.128C300.599 507.897 300.69 507.676 300.854 507.512C301.017 507.349 301.238 507.257 301.469 507.257H633.129C633.36 507.257 633.582 507.349 633.745 507.512C633.908 507.676 634 507.897 634 508.128C634 508.36 633.908 508.581 633.745 508.745C633.582 508.908 633.36 509 633.129 509Z" fill="#CACACA"/>
<path d="M397.342 495.261L410.805 495.26L417.21 443.268L397.34 443.269L397.342 495.261Z" fill="#FFB8B8"/>
<path d="M393.908 490.86L420.421 490.859H420.422C424.903 490.86 429.201 492.642 432.369 495.814C435.538 498.987 437.318 503.29 437.318 507.776V508.326L393.909 508.328L393.908 490.86Z" fill="#2F2E41"/>
<path d="M442.608 495.261L456.07 495.26L462.475 443.268L442.605 443.269L442.608 495.261Z" fill="#FFB8B8"/>
<path d="M439.174 490.86L465.687 490.859H465.688C470.169 490.86 474.467 492.642 477.635 495.814C480.804 498.987 482.584 503.29 482.585 507.776V508.326L439.175 508.328L439.174 490.86Z" fill="#2F2E41"/>
<path d="M418.502 312.678L421.732 477.623L395.607 476.001L377.484 370.94L371.759 299.306L418.502 312.678Z" fill="#2F2E41"/>
<path d="M463.337 284.98L466.998 480.238L436.53 479.366L429.949 363.299L418.502 321.274L371.76 299.306L379.391 246.776L448.074 245.82L463.337 284.98Z" fill="#2F2E41"/>
<path d="M410.808 110.195C423.711 110.195 434.171 99.7224 434.171 86.8036C434.171 73.8848 423.711 63.412 410.808 63.412C397.906 63.412 387.446 73.8848 387.446 86.8036C387.446 99.7224 397.906 110.195 410.808 110.195Z" fill="#FFB8B8"/>
<path d="M430.186 120.049L433.765 125.477L443.305 152.22L435.673 256.326L390.838 257.282L385.115 137.893L397.105 122.888L430.186 120.049Z" fill="#CCCCCC"/>
<path d="M366.99 140.759L359.358 139.803C359.358 139.803 357.451 140.759 356.497 147.444C355.543 154.13 344.096 213.347 344.096 213.347L359.358 285.935L376.529 263.012L366.036 222.898L376.529 182.783L366.99 140.759Z" fill="#2F2E41"/>
<path d="M464.291 139.804H470.014L484.324 217.167L470.968 277.339L457.613 255.372L461.429 231.494L459.521 210.482L452.844 198.065L464.291 139.804Z" fill="#2F2E41"/>
<path d="M424.614 86.8036L420.366 85.7403C420.366 85.7403 417.18 67.665 409.747 69.7915C402.313 71.918 383.198 74.0445 383.198 65.5385C383.198 57.0324 401.251 49.5897 411.871 50.6529C422.49 51.7162 436.053 55.2435 439.481 70.8547C444.977 95.8803 428.142 102.201 428.142 102.201L428.422 101.29C429.2 98.7602 429.255 96.0628 428.582 93.5029C427.91 90.9429 426.535 88.6224 424.614 86.8036Z" fill="#2F2E41"/>
<path d="M360.312 139.803L390.838 127.387L397.993 122.134L419.456 217.167L429.472 119.269L469.06 139.803L455.705 204.751L453.797 229.584L459.521 249.641C459.521 249.641 479.553 263.967 472.876 279.249C466.199 294.531 458.567 295.486 458.567 295.486C458.567 295.486 426.133 264.922 424.226 257.282C422.318 249.641 419.456 236.269 419.456 236.269C419.456 236.269 403.239 297.396 384.161 296.441C365.082 295.486 365.082 275.429 365.082 275.429L369.852 254.416L377.483 232.449L373.668 196.155L360.312 139.803Z" fill="#2F2E41"/>
</svg>
