<svg width="24" height="24" viewBox="0 0 24 24" fill="none" xmlns="http://www.w3.org/2000/svg">
<mask id="mask0_3_62" style="mask-type:alpha" maskUnits="userSpaceOnUse" x="0" y="0" width="24" height="24">
<rect width="24" height="24" fill="#D9D9D9"/>
</mask>
<g mask="url(#mask0_3_62)">
<path d="M2.87065 16.5348H21.1185C21.5417 16.5348 21.9036 16.6828 22.2043 16.9788C22.5051 17.2748 22.6554 17.6391 22.6554 18.0718C22.6554 18.4949 22.5051 18.8569 22.2043 19.1576C21.9036 19.4583 21.5417 19.6087 21.1185 19.6087H2.87065C2.43805 19.6087 2.07374 19.4583 1.77772 19.1576C1.4817 18.8569 1.3337 18.4949 1.3337 18.0718C1.3337 17.6391 1.4817 17.2748 1.7777 16.9788C2.07371 16.6828 2.43803 16.5348 2.87065 16.5348ZM3.66955 11.9457L3.44782 12.3783C3.30507 12.621 3.09384 12.7823 2.81412 12.862C2.5344 12.9417 2.27317 12.9102 2.03042 12.7674C1.78767 12.6341 1.6288 12.4294 1.5538 12.1533C1.4788 11.8772 1.51267 11.6178 1.65542 11.375L1.90217 10.9424H1.41955C1.13621 10.9424 0.894005 10.8442 0.692921 10.6478C0.491838 10.4514 0.391296 10.2069 0.391296 9.91413C0.391296 9.63079 0.491838 9.38858 0.692921 9.1875C0.894005 8.98642 1.13621 8.88588 1.41955 8.88588H1.90217L1.6663 8.4924C1.52353 8.24963 1.48784 7.99021 1.55922 7.71413C1.6306 7.43804 1.78767 7.23333 2.03042 7.1C2.27317 6.95725 2.5344 6.92338 2.81412 6.99838C3.09384 7.07338 3.30507 7.23225 3.44782 7.475L3.66955 7.88588L3.9163 7.46413C4.05905 7.22138 4.26792 7.06431 4.54292 6.99293C4.81792 6.92156 5.0768 6.95725 5.31955 7.1C5.56231 7.23333 5.71703 7.43804 5.7837 7.71413C5.85036 7.99021 5.81703 8.24963 5.6837 8.4924L5.44782 8.88588H5.90542C6.19817 8.88588 6.44274 8.98642 6.63912 9.1875C6.8355 9.38858 6.9337 9.63079 6.9337 9.91413C6.9337 10.2069 6.8355 10.4514 6.63912 10.6478C6.44274 10.8442 6.19817 10.9424 5.90542 10.9424H5.44782L5.7087 11.3891C5.85145 11.6319 5.88532 11.8889 5.81032 12.1603C5.73532 12.4317 5.57645 12.6341 5.3337 12.7674C5.09093 12.9102 4.8297 12.9417 4.55 12.862C4.27028 12.7823 4.05905 12.621 3.9163 12.3783L3.66955 11.9457ZM11.9891 11.9565L11.7532 12.3891C11.6199 12.6319 11.4134 12.7955 11.1337 12.8799C10.854 12.9643 10.5927 12.9352 10.35 12.7924C10.1072 12.6496 9.94837 12.4426 9.87337 12.1712C9.79837 11.8998 9.82754 11.6428 9.96087 11.4L10.2076 10.9533H9.75C9.46666 10.9533 9.22446 10.8551 9.02337 10.6587C8.82229 10.4623 8.72175 10.2225 8.72175 9.93913C8.72175 9.64638 8.82229 9.40181 9.02337 9.20543C9.22446 9.00906 9.46666 8.91088 9.75 8.91088H10.2076L9.98587 8.50325C9.83369 8.2605 9.79565 8.00344 9.87175 7.73208C9.94783 7.46069 10.1072 7.25363 10.35 7.11088C10.5927 6.96813 10.854 6.9366 11.1337 7.0163C11.4134 7.09602 11.6199 7.25725 11.7532 7.5L11.9891 7.89675L12.2359 7.475C12.3692 7.23225 12.5757 7.07754 12.8554 7.01088C13.1351 6.94421 13.3964 6.97754 13.6391 7.11088C13.8819 7.25363 14.0389 7.46069 14.1103 7.73208C14.1817 8.00344 14.146 8.2605 14.0032 8.50325L13.7815 8.91088H14.2391C14.5225 8.91088 14.7623 9.00906 14.9587 9.20543C15.1551 9.40181 15.2532 9.64638 15.2532 9.93913C15.2532 10.2225 15.1551 10.4623 14.9587 10.6587C14.7623 10.8551 14.5225 10.9533 14.2391 10.9533H13.7815L14.0282 11.4C14.171 11.6428 14.2049 11.8998 14.1299 12.1712C14.0549 12.4426 13.896 12.6496 13.6532 12.7924C13.4105 12.9352 13.1469 12.9667 12.8625 12.887C12.5781 12.8073 12.3692 12.6413 12.2359 12.3891L11.9891 11.9565ZM20.3054 11.9565L20.0446 12.4033C19.9112 12.646 19.7071 12.8073 19.4321 12.887C19.1571 12.9667 18.8982 12.9352 18.6554 12.7924C18.4127 12.6496 18.2538 12.4449 18.1788 12.1783C18.1038 11.9116 18.133 11.6569 18.2663 11.4141L18.5272 10.9533H18.0696C17.7862 10.9533 17.544 10.8551 17.3429 10.6587C17.1418 10.4623 17.0413 10.2225 17.0413 9.93913C17.0413 9.64638 17.1418 9.40181 17.3429 9.20543C17.544 9.00906 17.7862 8.91088 18.0696 8.91088H18.5272L18.3054 8.48913C18.1627 8.24638 18.1246 7.99167 18.1913 7.725C18.258 7.45833 18.4163 7.25363 18.6663 7.11088C18.9091 6.96813 19.1685 6.93243 19.4446 7.0038C19.7207 7.07518 19.9254 7.23225 20.0587 7.475L20.3054 7.89675L20.5413 7.5C20.6746 7.25725 20.8812 7.09838 21.1609 7.02338C21.4406 6.94838 21.7018 6.97754 21.9446 7.11088C22.1873 7.25363 22.3467 7.46069 22.4228 7.73208C22.4989 8.00344 22.4609 8.2605 22.3087 8.50325L22.087 8.91088H22.5554C22.8482 8.91088 23.0928 9.00906 23.2891 9.20543C23.4855 9.40181 23.5837 9.64638 23.5837 9.93913C23.5837 10.2225 23.4855 10.4623 23.2891 10.6587C23.0928 10.8551 22.8482 10.9533 22.5554 10.9533H22.087L22.3478 11.4C22.4812 11.6428 22.5103 11.8998 22.4353 12.1712C22.3603 12.4426 22.2014 12.6496 21.9587 12.7924C21.7159 12.9352 21.4524 12.9667 21.1679 12.887C20.8835 12.8073 20.6746 12.6413 20.5413 12.3891L20.3054 11.9565Z" fill="url(#paint0_linear_3_62)"/>
</g>
<defs>
<linearGradient id="paint0_linear_3_62" x1="5" y1="7" x2="22.5458" y2="16.1762" gradientUnits="userSpaceOnUse">
<stop stop-color="#FF9900"/>
<stop offset="1" stop-color="#3B00FF"/>
</linearGradient>
</defs>
</svg>
