<svg width="24" height="24" viewBox="0 0 24 24" fill="none" xmlns="http://www.w3.org/2000/svg">
<mask id="mask0_3_91" style="mask-type:alpha" maskUnits="userSpaceOnUse" x="0" y="0" width="24" height="24">
<rect width="24" height="24" fill="#D9D9D9"/>
</mask>
<g mask="url(#mask0_3_91)">
<path d="M9.34025 16.6772C7.33136 16.6772 5.62696 15.9769 4.22705 14.5765C2.82715 13.176 2.1272 11.4709 2.1272 9.46124C2.1272 7.45158 2.82743 5.74746 4.2279 4.34889C5.62836 2.95034 7.33343 2.25107 9.3431 2.25107C11.3528 2.25107 13.0569 2.95103 14.4554 4.35094C15.854 5.75086 16.5533 7.45525 16.5533 9.46412C16.5533 10.233 16.4538 10.9449 16.2549 11.6C16.056 12.2551 15.7754 12.8351 15.4131 13.3402L20.8065 18.7478C21.0942 19.0449 21.2381 19.4026 21.2381 19.8209C21.2381 20.2392 21.0895 20.5971 20.7924 20.8946C20.4972 21.1823 20.1399 21.3261 19.7204 21.3261C19.301 21.3261 18.9428 21.1823 18.6457 20.8946L13.298 15.5261C12.803 15.8717 12.2094 16.15 11.5174 16.3609C10.8254 16.5717 10.0997 16.6772 9.34025 16.6772ZM9.33442 13.6032C10.5052 13.6032 11.4887 13.2071 12.2849 12.4147C13.0812 11.6223 13.4793 10.6407 13.4793 9.46994C13.4793 8.29919 13.0812 7.31568 12.2849 6.51942C11.4887 5.72315 10.5052 5.32502 9.33442 5.32502C8.16366 5.32502 7.18208 5.72315 6.3897 6.51942C5.59731 7.31568 5.20112 8.29919 5.20112 9.46994C5.20112 10.6407 5.59731 11.6223 6.3897 12.4147C7.18208 13.2071 8.16366 13.6032 9.33442 13.6032Z" fill="url(#paint0_linear_3_91)"/>
</g>
<defs>
<linearGradient id="paint0_linear_3_91" x1="0.50003" y1="6" x2="23.0271" y2="5.32056" gradientUnits="userSpaceOnUse">
<stop stop-color="#FF9900"/>
<stop offset="1" stop-color="#3B00FF"/>
</linearGradient>
</defs>
</svg>
