<svg width="650" height="452" viewBox="0 0 650 452" fill="none" xmlns="http://www.w3.org/2000/svg">
<g clip-path="url(#clip0_24_1521)">
<path d="M129.508 452C201.034 452 259.016 447.599 259.016 442.169C259.016 436.74 201.034 432.338 129.508 432.338C57.9828 432.338 0 436.74 0 442.169C0 447.599 57.9828 452 129.508 452Z" fill="#E6E6E6"/>
<path d="M98.9937 100.291C121.532 90.7096 149.604 96.7802 177.019 100.993C177.274 95.8912 180.366 89.6815 177.127 86.1219C173.192 81.7973 173.554 77.2534 175.922 72.6833C181.978 60.9968 173.302 48.5618 164.542 38.2223C162.567 35.897 160.072 34.0701 157.258 32.8897C154.445 31.7094 151.392 31.2091 148.349 31.4293L132.121 32.5878C128.172 32.8697 124.404 34.3502 121.32 36.8312C118.236 39.3122 115.984 42.6754 114.865 46.4707C110.99 51.7378 108.916 56.9902 110.222 62.2153C104.418 66.1795 103.443 70.9646 106.051 76.359C108.262 79.7555 108.239 83.0617 105.95 86.2764C102.945 90.3748 100.643 94.9448 99.1387 99.7988L98.9937 100.291Z" fill="#2F2E41"/>
<path d="M634.597 390.747H175.238C171.153 390.747 167.236 389.125 164.347 386.238C161.459 383.351 159.836 379.435 159.836 375.352C326.353 356.01 489.741 356.01 650 375.352C650 379.435 648.377 383.351 645.489 386.238C642.6 389.125 638.682 390.747 634.597 390.747Z" fill="#2F2E41"/>
<path d="M650 376.258L159.836 375.352L216.644 279.816L216.916 279.364V68.8131C216.916 66.2575 217.419 63.7268 218.398 61.3657C219.376 59.0045 220.81 56.8592 222.618 55.0521C224.426 53.245 226.573 51.8115 228.935 50.8336C231.298 49.8557 233.83 49.3525 236.387 49.3527H570.731C573.288 49.3525 575.82 49.8557 578.182 50.8336C580.545 51.8115 582.691 53.245 584.499 55.0521C586.307 56.8592 587.742 59.0045 588.72 61.3657C589.698 63.7268 590.202 66.2575 590.202 68.8131V280.812L650 376.258Z" fill="#3F3D56"/>
<path d="M235.943 62.936C234.261 62.9379 232.649 63.6064 231.46 64.7947C230.271 65.9831 229.602 67.5943 229.601 69.2749V261.252C229.603 262.933 230.271 264.544 231.46 265.733C232.649 266.921 234.261 267.589 235.943 267.591H573.893C575.575 267.589 577.187 266.921 578.376 265.732C579.565 264.544 580.233 262.933 580.235 261.252V69.2749C580.233 67.5943 579.565 65.9832 578.376 64.7948C577.187 63.6065 575.575 62.938 573.893 62.936H235.943Z" fill="#E5F2FF"/>
<path d="M237.359 292.947C236.839 292.948 236.331 293.097 235.893 293.377C235.456 293.657 235.108 294.057 234.89 294.528L217.385 332.561C217.195 332.975 217.111 333.43 217.143 333.885C217.174 334.339 217.32 334.779 217.566 335.162C217.811 335.546 218.15 335.862 218.55 336.08C218.95 336.299 219.398 336.413 219.854 336.413H587.962C588.426 336.413 588.881 336.295 589.286 336.07C589.691 335.844 590.031 335.519 590.274 335.125C590.518 334.731 590.657 334.281 590.677 333.819C590.698 333.356 590.6 332.896 590.393 332.482L571.366 294.448C571.142 293.996 570.795 293.616 570.366 293.351C569.936 293.085 569.441 292.945 568.936 292.947H237.359Z" fill="#2F2E41"/>
<path d="M403.559 59.7666C405.811 59.7666 407.636 57.9422 407.636 55.6916C407.636 53.441 405.811 51.6166 403.559 51.6166C401.307 51.6166 399.482 53.441 399.482 55.6916C399.482 57.9422 401.307 59.7666 403.559 59.7666Z" fill="white"/>
<path d="M367.377 343.658C366.78 343.659 366.199 343.856 365.725 344.219C365.25 344.582 364.909 345.092 364.753 345.668L360.362 361.968C360.253 362.371 360.239 362.793 360.32 363.202C360.401 363.611 360.575 363.996 360.829 364.327C361.083 364.658 361.409 364.926 361.783 365.111C362.157 365.295 362.569 365.391 362.986 365.391H446.49C446.923 365.391 447.35 365.288 447.735 365.089C448.12 364.891 448.452 364.603 448.703 364.25C448.955 363.897 449.118 363.49 449.179 363.061C449.241 362.632 449.199 362.195 449.057 361.786L443.412 345.486C443.227 344.952 442.88 344.489 442.42 344.162C441.96 343.834 441.409 343.658 440.844 343.658H367.377Z" fill="#2F2E41"/>
<path d="M590.202 276.194V279.816H216.644L216.925 279.364V276.194H590.202Z" fill="#2F2E41"/>
<path d="M579.782 126.778C614.81 126.778 643.205 98.3975 643.205 63.3888C643.205 28.3801 614.81 0 579.782 0C544.755 0 516.36 28.3801 516.36 63.3888C516.36 98.3975 544.755 126.778 579.782 126.778Z" fill="#00A3FF"/>
<path d="M606.057 91.0082H553.507C552.547 91.0073 551.625 90.6254 550.946 89.9463C550.266 89.2672 549.884 88.3464 549.883 87.386V55.6916C549.884 54.7312 550.266 53.8105 550.946 53.1314C551.625 52.4524 552.547 52.0704 553.507 52.0694H606.057C607.018 52.0704 607.939 52.4524 608.619 53.1314C609.298 53.8105 609.68 54.7312 609.681 55.6916V87.386C609.681 88.3464 609.298 89.2672 608.619 89.9463C607.939 90.6254 607.018 91.0073 606.057 91.0082ZM553.507 55.6916V87.386H606.06L606.057 55.6916L553.507 55.6916Z" fill="white"/>
<path d="M603.667 89H555.333C554.45 88.9991 553.602 88.6558 552.977 88.0454C552.352 87.4351 552.001 86.6074 552 85.7442V57.2558C552.001 56.3926 552.352 55.565 552.977 54.9546C553.602 54.3442 554.45 54.0009 555.333 54H603.667C604.55 54.0009 605.398 54.3442 606.023 54.9546C606.648 55.565 606.999 56.3926 607 57.2558V85.7442C606.999 86.6074 606.648 87.435 606.023 88.0454C605.398 88.6559 604.55 88.9991 603.667 89ZM555.333 57.2558V85.7442H603.669L603.667 57.2558L555.333 57.2558Z" fill="white"/>
<path d="M596.091 55.6916H563.474V41.2027C563.474 30.7084 570.333 23.0916 579.782 23.0916C589.232 23.0916 596.091 30.7084 596.091 41.2027L596.091 55.6916ZM567.098 52.0694H592.467V41.2027C592.467 32.672 587.251 26.7139 579.782 26.7139C572.314 26.7139 567.098 32.672 567.098 41.2027L567.098 52.0694Z" fill="white"/>
<path d="M593 55H566V42.1111C566 32.7756 571.678 26 579.5 26C587.322 26 593 32.7756 593 42.1111L593 55ZM569 51.7778H590V42.1111C590 34.5224 585.682 29.2222 579.5 29.2222C573.318 29.2222 569 34.5225 569 42.1111L569 51.7778Z" fill="white"/>
<path d="M579.5 77C582.538 77 585 74.5376 585 71.5C585 68.4624 582.538 66 579.5 66C576.462 66 574 68.4624 574 71.5C574 74.5376 576.462 77 579.5 77Z" fill="white"/>
<path d="M535.508 202.474H274.328C273.046 202.473 271.816 201.963 270.909 201.057C270.003 200.151 269.493 198.922 269.491 197.64V132.887C269.493 131.605 270.003 130.377 270.909 129.47C271.816 128.564 273.046 128.054 274.328 128.053H535.508C536.79 128.054 538.02 128.564 538.926 129.47C539.833 130.377 540.343 131.605 540.345 132.887V197.64C540.343 198.922 539.833 200.151 538.926 201.057C538.02 201.963 536.79 202.473 535.508 202.474ZM274.328 129.986C273.558 129.987 272.821 130.293 272.277 130.837C271.733 131.381 271.427 132.118 271.426 132.887V197.64C271.427 198.409 271.733 199.147 272.277 199.69C272.821 200.234 273.558 200.54 274.328 200.541H535.508C536.277 200.54 537.015 200.234 537.559 199.69C538.103 199.147 538.409 198.409 538.41 197.64V132.887C538.409 132.118 538.103 131.381 537.559 130.837C537.015 130.293 536.277 129.987 535.508 129.986L274.328 129.986Z" fill="#90A8B9"/>
<path d="M314.91 182.471C325.791 182.471 334.612 173.654 334.612 162.779C334.612 151.904 325.791 143.087 314.91 143.087C304.029 143.087 295.208 151.904 295.208 162.779C295.208 173.654 304.029 182.471 314.91 182.471Z" fill="#90A8B9"/>
<path d="M360.412 149.651C359.981 149.651 359.553 149.735 359.154 149.9C358.755 150.064 358.393 150.306 358.087 150.611C357.782 150.916 357.539 151.278 357.374 151.676C357.209 152.075 357.124 152.502 357.124 152.933C357.124 153.365 357.209 153.792 357.374 154.19C357.539 154.589 357.782 154.951 358.087 155.256C358.393 155.561 358.755 155.802 359.154 155.967C359.553 156.132 359.981 156.216 360.412 156.215H515.214C516.085 156.215 516.92 155.869 517.536 155.254C518.151 154.638 518.497 153.804 518.497 152.933C518.497 152.063 518.151 151.228 517.536 150.613C516.92 149.997 516.085 149.651 515.214 149.651H360.412Z" fill="#90A8B9"/>
<path d="M360.412 169.343C359.541 169.343 358.706 169.689 358.09 170.304C357.475 170.92 357.129 171.754 357.129 172.625C357.129 173.495 357.475 174.33 358.09 174.946C358.706 175.561 359.541 175.907 360.412 175.907H427.024C427.895 175.907 428.73 175.561 429.346 174.946C429.961 174.33 430.307 173.495 430.307 172.625C430.307 171.754 429.961 170.92 429.346 170.304C428.73 169.689 427.895 169.343 427.024 169.343H360.412Z" fill="#90A8B9"/>
<path d="M216.002 170.671L167.721 196.326L167.109 174.946C182.868 172.317 197.861 167.739 211.724 160.286L216.773 147.818C217.323 146.459 218.218 145.267 219.368 144.358C220.519 143.449 221.886 142.855 223.336 142.633C224.786 142.412 226.268 142.571 227.637 143.096C229.007 143.62 230.216 144.491 231.147 145.624C232.509 147.281 233.19 149.394 233.052 151.534C232.914 153.674 231.967 155.681 230.403 157.15L216.002 170.671Z" fill="#FFB8B8"/>
<path d="M98.0314 318.793C97.6792 317.502 97.6044 316.151 97.812 314.829C98.0195 313.507 98.5048 312.243 99.2357 311.122L109.842 294.854C112.35 291.006 116.199 288.227 120.642 287.055C125.085 285.884 129.806 286.403 133.887 288.514C129.429 296.097 130.051 302.749 135.426 308.531C127.082 312.602 119.369 317.857 112.528 324.133C111.279 324.984 109.845 325.524 108.344 325.709C106.844 325.894 105.321 325.718 103.903 325.195C102.485 324.673 101.212 323.819 100.191 322.705C99.1694 321.592 98.429 320.25 98.0314 318.793Z" fill="#2F2E41"/>
<path d="M218.201 297.522C216.596 300.195 214.33 302.412 211.622 303.958C208.913 305.504 205.852 306.329 202.733 306.353L132.274 306.886L129.218 289.172L160.387 280.009L134.107 259.852L162.831 226.256L215.003 274.857C218.053 277.698 220.034 281.498 220.616 285.624C221.198 289.749 220.345 293.949 218.201 297.522Z" fill="#2F2E41"/>
<path d="M121.273 418.668H104.772C89.9559 317.166 74.875 215.381 119.439 177.39L171.998 185.941L165.276 230.532L135.94 264.128L121.273 418.668Z" fill="#2F2E41"/>
<path d="M135.778 441.661C134.486 442.013 133.135 442.088 131.812 441.881C130.489 441.674 129.225 441.189 128.103 440.458L110.186 438.051C106.336 435.544 103.555 431.697 102.383 427.256C101.211 422.816 101.73 418.098 103.841 414.019C111.429 418.474 118.085 417.852 123.869 412.479C127.956 420.727 134.689 420.224 141.12 427.172C141.972 428.421 142.512 429.854 142.697 431.353C142.882 432.853 142.706 434.375 142.184 435.792C141.661 437.21 140.807 438.482 139.693 439.503C138.578 440.524 137.236 441.264 135.778 441.661Z" fill="#2F2E41"/>
<path d="M160.387 109.587L129.829 102.257C134.904 91.8745 135.322 80.3213 132.885 68.0509L153.664 67.44C154.315 82.6987 156.285 96.9541 160.387 109.587Z" fill="#FFB8B8"/>
<path d="M168.785 204.333C146.54 219.483 130.822 204.851 118.828 182.276C120.495 168.462 117.796 151.931 112.798 133.969C110.575 126.046 111.405 117.578 115.124 110.237C118.842 102.896 125.18 97.2156 132.884 94.3167L159.164 105.312C181.479 123.491 185.871 143.183 177.499 163.951L168.785 204.333Z" fill="#00A3FF"/>
<path d="M104.772 124.858L80.3254 137.686L123.717 163.341L129.755 178.226C130.158 179.219 130.354 180.284 130.332 181.356C130.31 182.428 130.069 183.484 129.625 184.46C129.181 185.436 128.543 186.311 127.749 187.032C126.956 187.754 126.024 188.306 125.01 188.655C123.857 189.053 122.628 189.178 121.419 189.021C120.21 188.864 119.053 188.43 118.04 187.752C117.027 187.074 116.185 186.171 115.579 185.113C114.973 184.055 114.621 182.872 114.549 181.655L113.939 171.281L58.7882 153.091C56.9301 152.478 55.2358 151.451 53.8338 150.087C52.4318 148.723 51.3587 147.057 50.6959 145.217C49.7298 142.535 49.6806 139.608 50.5561 136.895C51.4315 134.182 53.1822 131.836 55.5341 130.223L99.8824 99.8141L104.772 124.858Z" fill="#FFB8B8"/>
<path d="M129.218 127.302C119.022 122.836 109.751 127.687 98.0488 131.577L96.2153 99.2033C107.835 93.0134 118.914 91.3445 129.218 96.1492L129.218 127.302Z" fill="#00A3FF"/>
<path d="M141.414 83.476C152.189 83.476 160.924 74.7458 160.924 63.9764C160.924 53.2071 152.189 44.4768 141.414 44.4768C130.639 44.4768 121.904 53.2071 121.904 63.9764C121.904 74.7458 130.639 83.476 141.414 83.476Z" fill="#FFB8B8"/>
<path d="M164.754 61.5161C145.438 63.407 130.719 60.2495 121.312 51.2591V44.019H163.115L164.754 61.5161Z" fill="#2F2E41"/>
</g>
<defs>
<clipPath id="clip0_24_1521">
<rect width="650" height="452" fill="white"/>
</clipPath>
</defs>
</svg>
