<svg width="49" height="16" viewBox="0 0 49 16" fill="none" xmlns="http://www.w3.org/2000/svg">
<g clip-path="url(#clip0_45_7810)">
<path d="M21.2333 15.6295H17.2639L19.7466 0.27832H23.7158L21.2333 15.6295Z" fill="#D9D9D9"/>
<path d="M35.6225 0.653563C34.8396 0.342952 33.5978 0 32.0623 0C28.1425 0 25.3821 2.09027 25.3652 5.07873C25.3326 7.28361 27.3415 8.50825 28.844 9.24342C30.3797 9.99466 30.9017 10.485 30.9017 11.1546C30.8861 12.183 29.6608 12.6571 28.518 12.6571C26.9332 12.6571 26.0841 12.4127 24.7937 11.8405L24.271 11.5953L23.7156 15.0413C24.6465 15.4654 26.3617 15.8418 28.1425 15.8583C32.3074 15.8583 35.0189 13.8003 35.051 10.6157C35.0668 8.86813 34.0061 7.5291 31.7191 6.43491C30.3308 5.73251 29.4806 5.25889 29.4806 4.54021C29.4969 3.88686 30.1997 3.21767 31.7669 3.21767C33.0573 3.1849 34.0054 3.49507 34.7237 3.80546L35.0827 3.96848L35.6225 0.653563Z" fill="#D9D9D9"/>
<path d="M40.8981 10.1912C41.225 9.30924 42.4829 5.896 42.4829 5.896C42.4664 5.92878 42.8091 4.99782 43.0051 4.4263L43.2825 5.74906C43.2825 5.74906 44.0342 9.42363 44.1974 10.1912C43.577 10.1912 41.6821 10.1912 40.8981 10.1912ZM45.7978 0.27832H42.7275C41.7807 0.27832 41.0613 0.555721 40.6528 1.55202L34.7569 15.6293H38.9218C38.9218 15.6293 39.6075 13.7346 39.7549 13.3266C40.2118 13.3266 44.2634 13.3266 44.8512 13.3266C44.9651 13.8655 45.3248 15.6293 45.3248 15.6293H49L45.7978 0.27832Z" fill="#D9D9D9"/>
<path d="M13.9486 0.27832L10.0613 10.7464L9.63652 8.62334C8.91784 6.17362 6.66391 3.51205 4.14864 2.18865L7.70926 15.6133H11.9067L18.1459 0.27832H13.9486Z" fill="#D9D9D9"/>
<path d="M6.45162 0.27832H0.0653342L0 0.588496C4.9817 1.86241 8.28099 4.93313 9.63652 8.62399L8.24821 1.56873C8.01965 0.588279 7.31725 0.310662 6.45162 0.27832Z" fill="#FAA61A"/>
</g>
<defs>
<clipPath id="clip0_45_7810">
<rect width="49" height="15.8583" fill="white"/>
</clipPath>
</defs>
</svg>
